# xmcd
#
# Track frame offsets:
#	150
#	19135
#	33660
#	53115
#	73265
#	85923
#	101760
#	113644
#	126506
#	138055
#
# Disc length: 2066
#
# Revision: 1
# Processed by: cddbd v1.5.2PL0 Copyright (c) Steve Scherf et al.
# Submitted via: kJams Pro (development) 1.0patch48.45
#
DISCID=8b08100a
DTITLE=Compilation - Country Party
DYEAR=1900
DGENRE=Country
TTITLE0=Garth Brooks - Friends in Low Places
TTITLE1=Hank Williams Jr - All My Rowdy Friends are Coming over Tonight
TTITLE2=Hank Williams Jr - Family Tradition
TTITLE3=Soggy Bottom Boys - I Am a Man of Constant Sorrow
TTITLE4=Oak Ridge Boys - Elvira
TTITLE5=Tractors - Baby Likes to Rock It
TTITLE6=Buck Owens - Act Naturally
TTITLE7=Commander Cody - Hot Rod Lincoln
TTITLE8=Travis Tritt - Here's a Quarter
TTITLE9=Big and Rich - Save a Horse (Ride a Cowboy)
EXTD=
EXTT0=
EXTT1=
EXTT2=
EXTT3=
EXTT4=
EXTT5=
EXTT6=
EXTT7=
EXTT8=
EXTT9=
PLAYORDER=
